<svg xmlns="http://www.w3.org/2000/svg" version="1.1" xmlns:xlink="http://www.w3.org/1999/xlink" xmlns:svgjs="http://svgjs.dev/svgjs" width="1000" height="623" viewBox="0 0 1000 623"><g transform="matrix(1,0,0,1,-0.6060606060606233,0.2522267206477409)"><svg viewBox="0 0 396 247" data-background-color="#111111" preserveAspectRatio="xMidYMid meet" height="623" width="1000" xmlns="http://www.w3.org/2000/svg" xmlns:xlink="http://www.w3.org/1999/xlink"><g id="tight-bounds" transform="matrix(1,0,0,1,0.2400000000000091,-0.09999999999999432)"><svg viewBox="0 0 395.52 247.2" height="247.2" width="395.52"><g><svg></svg></g><g><svg viewBox="0 0 395.52 247.2" height="247.2" width="395.52"><g transform="matrix(1,0,0,1,132.79140652173913,47.215199999999996)"><svg viewBox="0 0 129.9371869565217 152.7696" height="152.7696" width="129.9371869565217"><g><svg viewBox="0 0 129.9371869565217 152.7696" height="152.7696" width="129.9371869565217"><g><svg viewBox="0 0 129.9371869565217 152.7696" height="152.7696" width="129.9371869565217"><g><svg viewBox="0 0 129.9371869565217 152.7696" height="152.7696" width="129.9371869565217"><g id="textblocktransform"><svg viewBox="0 0 129.9371869565217 152.7696" height="152.7696" width="129.9371869565217" id="textblock"><g><svg viewBox="0 0 129.9371869565217 152.7696" height="152.7696" width="129.9371869565217"><g transform="matrix(1,0,0,1,0,0)"><svg width="129.9371869565217" viewBox="4.75 -36.79999923706055 31.299999237060547 36.79999923706055" height="152.7696" data-palette-color="#ffffff"><path d="M17.55 0L4.75 0 4.75-36.8 15.75-36.8Q21.3-36.8 25.2-35.15 29.1-33.5 31.48-30.75 33.85-28 34.95-24.6 36.05-21.2 36.05-17.75L36.05-17.75Q36.05-13.65 34.58-10.38 33.1-7.1 30.55-4.78 28-2.45 24.65-1.23 21.3 0 17.55 0L17.55 0ZM12-29.85L12-7 16.3-7Q19.05-7 21.3-7.73 23.55-8.45 25.18-9.85 26.8-11.25 27.68-13.38 28.55-15.5 28.55-18.25L28.55-18.25Q28.55-21.85 27.38-24.13 26.2-26.4 24.48-27.65 22.75-28.9 20.95-29.38 19.15-29.85 17.9-29.85L17.9-29.85 12-29.85Z" opacity="1" transform="matrix(1,0,0,1,0,0)" fill="#ffffff" class="wordmark-text-0" data-fill-palette-color="primary" id="text-0"></path></svg></g></svg></g></svg></g></svg></g></svg></g></svg></g></svg></g><path d="M315.093 41.215L315.093 0 67.893 0 67.893 247.2 315.093 247.2 315.093 205.985 301.316 205.985 301.316 233.423 81.67 233.423 81.67 13.777 301.316 13.777 301.316 41.215Z" fill="#ffffff" stroke="transparent" data-fill-palette-color="primary"></path></svg></g><defs></defs></svg><rect width="395.52" height="247.2" fill="none" stroke="none" visibility="hidden"></rect></g></svg></g></svg>